<svg xmlns="http://www.w3.org/2000/svg" viewBox="0 0 757.29 757.29"><defs><style>.cls-1{fill:#10cfc9;}.cls-2{fill:#fff;}</style></defs><title>Asset 3</title><g id="Layer_2" data-name="Layer 2"><g id="Layer_1-2" data-name="Layer 1"><circle class="cls-1" cx="378.65" cy="378.65" r="378.65"/><path class="cls-2" d="M641.22,305.92H451.37V116.07A31.5,31.5,0,0,0,419.9,84.6H337.39a31.51,31.51,0,0,0-31.47,31.47V305.92H116.07A31.51,31.51,0,0,0,84.6,337.39V419.9a31.5,31.5,0,0,0,31.47,31.47H305.92V641.22a31.51,31.51,0,0,0,31.47,31.47H419.9a31.5,31.5,0,0,0,31.47-31.47V451.37H641.22a31.5,31.5,0,0,0,31.47-31.47V337.39A31.51,31.51,0,0,0,641.22,305.92Z"/></g></g></svg>